<?xml version="1.0" encoding="UTF-8" standalone="no"?>
<svg
   xmlns:dc="http://purl.org/dc/elements/1.1/"
   xmlns:cc="http://creativecommons.org/ns#"
   xmlns:rdf="http://www.w3.org/1999/02/22-rdf-syntax-ns#"
   xmlns:svg="http://www.w3.org/2000/svg"
   xmlns="http://www.w3.org/2000/svg"
   viewBox="0 0 257.33334 257.33334"
   height="257.33334"
   width="257.33334"
   xml:space="preserve"
   id="svg2"
   version="1.1"><metadata
     id="metadata8"><rdf:RDF><cc:Work
         rdf:about=""><dc:format>image/svg+xml</dc:format><dc:type
           rdf:resource="http://purl.org/dc/dcmitype/StillImage" /></cc:Work></rdf:RDF></metadata><defs
     id="defs6" /><g
     transform="matrix(1.3333333,0,0,-1.3333333,0,257.33333)"
     id="g10"><g
       transform="scale(0.1)"
       id="g12"><path
         id="path14"
         style="fill:#ffffff;fill-opacity:1;fill-rule:evenodd;stroke:none"
         d="M 0,1927.56 H 1927.56 V 0 H 0 v 1927.56" /><path
         id="path16"
         style="fill:#1a68bb;fill-opacity:1;fill-rule:evenodd;stroke:none"
         d="m 536.48,951.363 v -0.379 c 65.391,97.726 98.485,196.956 98.868,314.436 0,116.72 -35.371,218.24 -98.868,315.58 h -0.382 c -57.41,-91.62 -93.903,-187.45 -97.325,-294.29 -3.808,-119.38 30.418,-236.87 97.707,-335.347 z m 0,22.813 v 0.39 c -18.238,35.724 -27.761,74.514 -27.761,114.054 0,38.79 9.523,79.46 27.761,113.69 v 0.37 c 17.5,-36.12 27.762,-73.75 27.762,-114.06 0,-41.44 -10.262,-77.17 -27.762,-114.444 z m -73.382,315.204 c 6.457,86.69 32.703,164.63 73,242.95 l 0.382,-0.38 c 46.379,-83.65 70.719,-165.77 75.29,-260.82 2.277,-41.83 -1.907,-82.52 -10.645,-123.58 1.891,42.21 -0.395,81.75 -7.988,122.81 -10.278,57.03 -30.043,107.99 -56.657,159.69 l -0.382,0.38 c -23.567,-46.76 -41.434,-92.77 -52.457,-143.34 -10.262,-47.14 -12.559,-90.87 -12.559,-139.54 -6.844,47.53 -11.406,93.93 -7.984,141.83" /><path
         id="path18"
         style="fill:#1a68bb;fill-opacity:1;fill-rule:evenodd;stroke:none"
         d="m 436.098,835.414 c 19.011,18.625 36.89,28.125 63.89,25.461 43.34,-4.191 71.086,-30.031 73.371,-73 4.196,-82.129 -104.554,-131.945 -172.613,-128.129 -98.48,4.938 -163.871,68.422 -179.469,158.93 -9.5,55.121 11.024,115.582 49.821,157.402 38.398,41.062 90.488,57.412 144.468,58.552 v 246.76 C 231.16,1281.39 95.0469,1150.6 85.5508,971.516 75.2852,771.906 220.141,636.543 404.934,630.082 c 98.097,-3.797 171.464,33.082 238.773,96.578 V 939.199 H 436.098 V 835.414" /><path
         id="path20"
         style="fill:#1a68bb;fill-opacity:1;fill-rule:evenodd;stroke:none"
         d="m 692.875,637.188 h 61.652 v 253.414 h 28.407 v 48.211 H 692.875 V 637.188" /><path
         id="path22"
         style="fill:#1a68bb;fill-opacity:1;fill-rule:evenodd;stroke:none"
         d="M 814.715,938.813 785.547,637.188 H 840.5 l 6.344,55.3 h 23.922 l 6.734,-55.3 h 54.949 l -29.535,301.625 z m 34.383,-190.993 8.207,108.77 h 3.008 l 8.601,-108.77 h -19.816" /><path
         id="path24"
         style="fill:#1a68bb;fill-opacity:1;fill-rule:evenodd;stroke:none"
         d="m 1077.09,792.676 v 3.359 c 13.46,2.238 13.09,28.77 13.09,40.746 v 48.203 c 0,37.016 -2.63,53.829 -45.6,53.829 h -51.217 c -43.355,0 -45.968,-21.676 -45.968,-53.829 v -39.605 h 61.665 v 34 c 0,7.855 6.37,10.101 9.72,10.101 5.99,0 9.72,-4.867 9.72,-10.101 v -35.883 c 0,-18.691 -5.97,-22.402 -23.55,-22.402 h -11.587 v -52.715 h 10.477 c 23.17,0 24.66,-10.473 24.66,-19.809 v -54.953 c 0,-5.211 -3.73,-10.09 -9.72,-10.09 -3.35,0 -9.72,2.254 -9.72,10.09 v 53.086 h -61.665 v -55.32 c 0,-42.977 2.613,-54.195 45.968,-54.195 h 51.217 c 39.61,0 45.6,7.48 45.6,54.195 v 60.543 c 0,10.847 1.86,40.75 -13.09,40.75" /><path
         id="path26"
         style="fill:#1a68bb;fill-opacity:1;fill-rule:evenodd;stroke:none"
         d="m 1117.84,637.188 h 61.65 v 252.667 h 19.44 V 637.188 h 61.68 V 938.813 H 1117.84 V 637.188" /><path
         id="path28"
         style="fill:#1a68bb;fill-opacity:1;fill-rule:evenodd;stroke:none"
         d="m 1389.57,938.813 h -96.8 V 637.188 h 61.66 v 102.773 h 35.14 c 43.34,0 45.93,19.445 45.93,53.844 v 91.179 c 0,26.543 -2.59,53.829 -45.93,53.829 z M 1373.86,802.02 c 0,-9.727 -4.88,-15.336 -11.6,-15.336 h -7.83 v 103.918 h 7.83 c 6.72,0 11.6,-5.618 11.6,-14.95 V 802.02" /><path
         id="path30"
         style="fill:#1a68bb;fill-opacity:1;fill-rule:evenodd;stroke:none"
         d="m 1558.49,938.813 h -51.19 c -42.99,0 -45.62,-24.665 -45.62,-53.079 V 691.383 c 0,-35.125 2.63,-54.195 45.62,-54.195 h 51.19 c 43.37,0 45.97,16.832 45.97,54.195 v 193.601 c 0,29.164 -2.6,53.829 -45.97,53.829 z m -15.68,-243.7 c 0,-5.23 -4.11,-9.722 -9.76,-9.722 -3.71,0 -9.7,1.886 -9.7,9.722 v 185.016 c 0,7.848 5.99,9.726 9.7,9.726 5.65,0 9.76,-4.492 9.76,-9.726 V 695.113" /><path
         id="path32"
         style="fill:#1a68bb;fill-opacity:1;fill-rule:evenodd;stroke:none"
         d="m 1760.69,938.813 -24.67,-137.915 -22.43,137.915 h -80.34 V 637.188 h 62.05 v 136.789 h 2.24 l 20.54,-136.789 h 37.75 l 21.31,136.789 h 2.24 V 637.188 h 61.66 v 301.625 h -80.35" /><path
         id="path34"
         style="fill:#9a9898;fill-opacity:1;fill-rule:evenodd;stroke:none"
         d="m 120.953,552 c 3.242,0 6.613,-2.156 6.613,-6.641 v -39.968 c 0,-4.668 -3.371,-6.93 -6.613,-6.977 -3.273,0 -6.562,2.309 -6.562,6.977 v 39.968 c 0,4.485 3.289,6.641 6.562,6.641 z m -25.5194,-7.879 v -35.383 c 0,-15.73 8.0354,-24.535 25.5194,-24.535 17.746,0 25.547,8.805 25.547,24.535 v 35.258 c 0,12.266 -7.574,22.258 -25.402,22.258 -17.856,0 -25.6644,-9.762 -25.6644,-22.133" /><path
         id="path36"
         style="fill:#9a9898;fill-opacity:1;fill-rule:evenodd;stroke:none"
         d="m 170.613,548.66 h -14.851 v 15.824 h 46.191 V 548.66 h -13.937 v -62.863 h -17.403 v 62.863" /><path
         id="path38"
         style="fill:#9a9898;fill-opacity:1;fill-rule:evenodd;stroke:none"
         d="m 212.141,564.484 h 18.089 v -31.328 l 13.223,31.328 h 20.641 l -17.434,-34.738 17.434,-43.949 h -19.953 l -8.719,27.363 -5.192,-9.074 v -18.289 h -18.089 v 78.687" /><path
         id="path40"
         style="fill:#9a9898;fill-opacity:1;fill-rule:evenodd;stroke:none"
         d="m 292.934,530.594 v 19.758 H 296 c 5.48,0 9.281,-1.864 9.281,-9.645 0.117,-7.785 -4.277,-10.113 -8.941,-10.113 z m -18.957,-44.797 h 18.957 v 30.715 h 8.546 c 11.122,0 22.891,4.547 22.891,23.968 0,20.047 -11.961,24.004 -22.891,24.004 h -27.503 v -78.687" /><path
         id="path42"
         style="fill:#9a9898;fill-opacity:1;fill-rule:evenodd;stroke:none"
         d="m 335.754,564.484 h 18.992 v -30.652 h 8.52 c 11.183,0 22.902,-4.656 22.902,-24.07 0,-19.992 -11.957,-23.965 -22.902,-23.965 h -27.512 z m 18.992,-44.843 v -19.707 h 3.031 c 5.489,0 9.375,1.871 9.375,9.593 0.075,7.848 -4.289,10.114 -9.039,10.114 z m 39.113,-33.844 h 18.938 v 78.687 h -18.938 v -78.687" /><path
         id="path44"
         style="fill:#9a9898;fill-opacity:1;fill-rule:evenodd;stroke:none"
         d="M 437.574,548.66 H 422.68 v 15.824 h 46.234 V 548.66 H 455 v -62.863 h -17.426 v 62.863" /><path
         id="path46"
         style="fill:#9a9898;fill-opacity:1;fill-rule:evenodd;stroke:none"
         d="m 503.473,552 c 3.117,0 6.496,-2.156 6.496,-6.641 v -39.968 c 0,-4.668 -3.379,-6.93 -6.496,-6.977 -3.289,0 -6.618,2.309 -6.618,6.977 v 39.968 c 0,4.485 3.329,6.641 6.618,6.641 z m -25.555,-7.879 v -35.383 c 0,-15.73 7.949,-24.535 25.555,-24.535 17.644,0 25.492,8.805 25.492,24.535 v 35.258 c 0,12.266 -7.555,22.258 -25.438,22.258 -17.863,0 -25.609,-9.762 -25.609,-22.133" /><path
         id="path48"
         style="fill:#9a9898;fill-opacity:1;fill-rule:evenodd;stroke:none"
         d="m 541.891,564.484 h 44.105 v -14.863 h -25.117 v -15.269 h 23.219 v -14.879 h -23.219 v -18.75 h 25.117 v -14.926 h -44.105 v 78.687" /><path
         id="path50"
         style="fill:#9a9898;fill-opacity:1;fill-rule:evenodd;stroke:none"
         d="m 646.695,515.723 5,34.629 5.055,-34.629 z m -23.14,-29.926 h 18.82 l 2.449,15.781 h 14.485 l 2.808,-15.781 h 18.59 l -17.402,78.687 h -22.629 l -17.121,-78.687" /><path
         id="path52"
         style="fill:#9a9898;fill-opacity:1;fill-rule:evenodd;stroke:none"
         d="m 689.73,564.484 h 18.024 v -31.328 l 13.32,31.328 h 20.586 l -17.406,-34.738 17.406,-43.949 h -19.863 l -8.809,27.363 -5.234,-9.074 V 485.797 H 689.73 v 78.687" /><path
         id="path54"
         style="fill:#9a9898;fill-opacity:1;fill-rule:evenodd;stroke:none"
         d="m 782.852,501.578 v 62.906 h 18.929 v -62.906 h 4.153 v -32.019 h -18.567 v 16.238 h -35.855 v 78.687 h 18.992 v -62.906 h 12.348" /><path
         id="path56"
         style="fill:#9a9898;fill-opacity:1;fill-rule:evenodd;stroke:none"
         d="m 865.918,485.797 h -18.023 v 18.289 c 0,8.457 2.488,21.285 3.328,29.574 L 834.945,485.797 H 816.5 v 78.687 h 18.254 v -19.636 c 0,-8.633 -2.367,-21.012 -2.906,-29.754 l 16.047,49.39 h 18.023 v -78.687" /><path
         id="path58"
         style="fill:#9a9898;fill-opacity:1;fill-rule:evenodd;stroke:none"
         d="m 904.109,552 c 3.18,0 6.52,-2.156 6.52,-6.641 v -39.968 c 0,-4.668 -3.34,-6.93 -6.52,-6.977 -3.328,0 -6.617,2.309 -6.617,6.977 v 39.968 c 0,4.485 3.289,6.641 6.617,6.641 z M 878.5,544.121 v -35.383 c 0,-15.73 8.051,-24.535 25.609,-24.535 17.704,0 25.512,8.805 25.512,24.535 v 35.258 c 0,12.266 -7.629,22.258 -25.43,22.258 -17.89,0 -25.691,-9.762 -25.691,-22.133" /><path
         id="path60"
         style="fill:#9a9898;fill-opacity:1;fill-rule:evenodd;stroke:none"
         d="m 961.496,485.797 h -18.988 v 78.687 h 18.988 v -29.742 h 12.41 v 29.742 h 18.91 v -78.687 h -18.91 v 33.215 h -12.41 v -33.215" /><path
         id="path62"
         style="fill:#9a9898;fill-opacity:1;fill-rule:evenodd;stroke:none"
         d="m 1007.01,564.484 h 44.01 v -14.863 h -25.07 v -15.269 h 23.2 v -14.879 h -23.2 v -18.75 h 25.07 v -14.926 h -44.01 v 78.687" /><path
         id="path64"
         style="fill:#9a9898;fill-opacity:1;fill-rule:evenodd;stroke:none"
         d="m 1081.57,530.594 v 19.758 h 3.09 c 5.5,0 9.34,-1.864 9.34,-9.645 0.13,-7.785 -4.31,-10.113 -9.04,-10.113 z m -18.94,-44.797 h 18.94 v 30.715 h 8.59 c 11.16,0 22.89,4.547 22.89,23.968 0,20.047 -11.88,24.004 -22.89,24.004 h -27.53 v -78.687" /><path
         id="path66"
         style="fill:#9a9898;fill-opacity:1;fill-rule:evenodd;stroke:none"
         d="m 1143.4,485.797 h -18.94 v 78.687 h 18.94 v -29.742 h 12.37 v 29.742 h 18.99 v -78.687 h -18.99 v 33.215 h -12.37 v -33.215" /><path
         id="path68"
         style="fill:#9a9898;fill-opacity:1;fill-rule:evenodd;stroke:none"
         d="m 1213.2,552 c 3.18,0 6.58,-2.156 6.58,-6.641 v -39.968 c 0,-4.668 -3.4,-6.93 -6.58,-6.977 -3.29,0 -6.52,2.309 -6.52,6.977 v 39.968 c 0,4.485 3.23,6.641 6.52,6.641 z m -25.47,-7.879 v -35.383 c 0,-15.73 7.89,-24.535 25.47,-24.535 17.78,0 25.55,8.805 25.55,24.535 v 35.258 c 0,12.266 -7.53,22.258 -25.42,22.258 -17.9,0 -25.6,-9.762 -25.6,-22.133" /><path
         id="path70"
         style="fill:#9a9898;fill-opacity:1;fill-rule:evenodd;stroke:none"
         d="m 1251.68,564.484 h 44.03 v -14.863 h -25.04 v -15.269 h 23.16 v -14.879 h -23.16 v -18.75 h 25.04 v -14.926 h -44.03 v 78.687" /><path
         id="path72"
         style="fill:#9a9898;fill-opacity:1;fill-rule:evenodd;stroke:none"
         d="m 1363.13,552 c 3.18,0 6.54,-2.156 6.54,-6.641 v -39.968 c 0,-4.668 -3.36,-6.93 -6.54,-6.977 -3.29,0 -6.59,2.309 -6.59,6.977 v 39.968 c 0,4.485 3.3,6.641 6.59,6.641 z m -25.54,-7.879 v -35.383 c 0,-15.73 8.05,-24.535 25.54,-24.535 17.71,0 25.51,8.805 25.51,24.535 v 35.258 c 0,12.266 -7.55,22.258 -25.4,22.258 -17.85,0 -25.65,-9.762 -25.65,-22.133" /><path
         id="path74"
         style="fill:#9a9898;fill-opacity:1;fill-rule:evenodd;stroke:none"
         d="m 1401.63,564.484 h 42.79 v -14.132 h -23.88 v -16.52 h 8.53 c 11.22,0 22.93,-4.656 22.93,-24.07 0,-19.992 -11.93,-23.965 -22.93,-23.965 h -27.44 z m 18.91,-44.843 v -19.707 h 3.06 c 5.47,0 9.32,1.871 9.32,9.593 0.1,7.848 -4.28,10.114 -8.94,10.114 h -3.44" /><path
         id="path76"
         style="fill:#9a9898;fill-opacity:1;fill-rule:evenodd;stroke:none"
         d="m 1464.28,564.484 h 18.96 v -62.906 h 12.49 v 62.906 h 18.28 v -62.906 h 12.53 v 62.906 h 18.94 v -62.906 h 3.94 v -32.019 h -18.51 v 16.238 h -66.63 v 78.687" /><path
         id="path78"
         style="fill:#9a9898;fill-opacity:1;fill-rule:evenodd;stroke:none"
         d="m 1560.49,564.484 h 44.04 v -14.863 h -25.1 v -15.269 h 23.2 v -14.879 h -23.2 v -18.75 h 25.1 v -14.926 h -44.04 v 78.687" /><path
         id="path80"
         style="fill:#9a9898;fill-opacity:1;fill-rule:evenodd;stroke:none"
         d="m 1665.24,516.914 v -7.387 c 0,-17.824 -8.05,-25.492 -25.65,-25.492 -17.41,0 -25.64,7.559 -25.64,25.676 v 34.285 c 0,12.324 7.67,22.258 25.64,22.258 17.76,0 25.65,-10.098 25.65,-22.375 v -7.094 h -18.95 v 8.86 c 0,4.199 -3.9,6.125 -6.87,6.125 -3.25,0 -6.4,-1.762 -6.4,-5.782 v -39.465 c 0,-5.91 2.44,-8.23 6.4,-8.23 4.06,0 6.87,2.32 6.87,8.23 v 10.391 h 18.95" /><path
         id="path82"
         style="fill:#9a9898;fill-opacity:1;fill-rule:evenodd;stroke:none"
         d="m 1689.23,548.66 h -14.89 v 15.824 h 46.28 V 548.66 h -13.92 v -62.863 h -17.47 v 62.863" /><path
         id="path84"
         style="fill:#9a9898;fill-opacity:1;fill-rule:evenodd;stroke:none"
         d="m 1749.18,550.352 h 5.58 c 5.39,0 7.49,-2.715 7.49,-7.379 0,-6.188 -2.1,-8.977 -7.49,-8.977 h -5.58 z m 0,-30.426 h 4.76 c 6.67,0 8.76,-3.582 8.76,-10.164 0,-7.106 -2.09,-9.828 -9.2,-9.828 h -4.32 z m 8.13,-34.129 c 16.08,0 23.97,8.512 23.97,23.223 0,10.96 -4.11,16.011 -11.46,19.082 4.09,0.847 10.69,5.894 10.69,16.695 0,14.07 -10.17,19.687 -19.35,19.687 h -30.27 v -78.687 h 26.42" /><path
         id="path86"
         style="fill:#9a9898;fill-opacity:1;fill-rule:evenodd;stroke:none"
         d="m 1817.01,552 c 3.25,0 6.62,-2.156 6.62,-6.641 v -39.968 c 0,-4.668 -3.37,-6.93 -6.62,-6.977 -3.29,0 -6.59,2.309 -6.59,6.977 v 39.968 c 0,4.485 3.3,6.641 6.59,6.641 z m -25.51,-7.879 v -35.383 c 0,-15.73 8,-24.535 25.51,-24.535 17.8,0 25.51,8.805 25.51,24.535 v 35.258 c 0,12.266 -7.5,22.258 -25.41,22.258 -17.85,0 -25.61,-9.762 -25.61,-22.133" /></g></g></svg>