<?xml version="1.0" encoding="UTF-8" standalone="no"?>
<svg
   xmlns:dc="http://purl.org/dc/elements/1.1/"
   xmlns:cc="http://creativecommons.org/ns#"
   xmlns:rdf="http://www.w3.org/1999/02/22-rdf-syntax-ns#"
   xmlns:svg="http://www.w3.org/2000/svg"
   xmlns="http://www.w3.org/2000/svg"
   viewBox="0 0 384.82666 96.213333"
   height="96.213333"
   width="384.82666"
   xml:space="preserve"
   id="svg2"
   version="1.1"><metadata
     id="metadata8"><rdf:RDF><cc:Work
         rdf:about=""><dc:format>image/svg+xml</dc:format><dc:type
           rdf:resource="http://purl.org/dc/dcmitype/StillImage" /></cc:Work></rdf:RDF></metadata><defs
     id="defs6" /><g
     transform="matrix(1.3333333,0,0,-1.3333333,0,96.213333)"
     id="g10"><g
       transform="scale(0.1)"
       id="g12"><path
         id="path14"
         style="fill:#d92a30;fill-opacity:1;fill-rule:nonzero;stroke:none"
         d="M 0,284.621 C 0,142.902 79.1992,0 256.543,0 433.73,0 513.098,142.902 513.098,284.621 c 0,96.785 -32.551,208.25 -86.86,298.289 -52.82,86.934 -116.297,138.653 -169.695,138.653 -53.547,0 -117.031,-51.719 -169.4024,-138.653 C 32.5586,492.871 0,381.406 0,284.621" /><path
         id="path16"
         style="fill:#d92a30;fill-opacity:1;fill-rule:nonzero;stroke:none"
         d="m 1821.46,508.945 h -179.58 v 173.946 h 551.57 V 508.945 H 2013.89 V 38.6445 H 1821.46 V 508.945" /><path
         id="path18"
         style="fill:#d92a30;fill-opacity:1;fill-rule:nonzero;stroke:none"
         d="m 2603.94,508.945 h 282.23 v 173.946 h -282.21 c -259.3,0 -397.74,-129.493 -397.74,-322.118 0,-192.656 138.44,-322.1285 397.74,-322.1285 h 282.21 V 212.57 h -282.23 c -119.99,0 -198.89,43.094 -198.89,148.203 0,105.086 78.9,148.172 198.89,148.172" /><path
         id="path20"
         style="fill:#d92a30;fill-opacity:1;fill-rule:nonzero;stroke:none"
         d="m 1148,298.359 102.59,384.532 H 1590.6 V 38.6445 H 1398.18 V 563 L 1258.3,38.6445 H 1037.69 L 897.91,562.676 V 38.6445 H 705.496 V 682.891 H 1045.41 L 1148,298.359" /></g></g></svg>