<?xml version="1.0" encoding="UTF-8" standalone="no"?>
<svg
   xmlns:dc="http://purl.org/dc/elements/1.1/"
   xmlns:cc="http://creativecommons.org/ns#"
   xmlns:rdf="http://www.w3.org/1999/02/22-rdf-syntax-ns#"
   xmlns:svg="http://www.w3.org/2000/svg"
   xmlns="http://www.w3.org/2000/svg"
   viewBox="0 0 773.33331 773.33331"
   height="773.33331"
   width="773.33331"
   xml:space="preserve"
   id="svg2"
   version="1.1"><metadata
     id="metadata8"><rdf:RDF><cc:Work
         rdf:about=""><dc:format>image/svg+xml</dc:format><dc:type
           rdf:resource="http://purl.org/dc/dcmitype/StillImage" /></cc:Work></rdf:RDF></metadata><defs
     id="defs6" /><g
     transform="matrix(1.3333333,0,0,-1.3333333,0,773.33333)"
     id="g10"><g
       transform="scale(0.1)"
       id="g12"><path
         id="path14"
         style="fill:#4d71a9;fill-opacity:1;fill-rule:nonzero;stroke:none"
         d="M 893.738,5800 H 4906.27 C 5399.84,5800 5800,5399.86 5800,4906.26 V 893.73 C 5800,400.16 5399.84,0 4906.27,0 H 893.738 C 400.141,0 0,400.16 0,893.738 V 4906.26 C 0,5399.86 400.141,5800 893.738,5800" /><path
         id="path16"
         style="fill:#ffffff;fill-opacity:1;fill-rule:nonzero;stroke:none"
         d="m 2851.34,1739.82 h 237.26 c 0,0 71.65,7.89 108.28,47.3 33.66,36.22 32.6,104.21 32.6,104.21 0,0 -4.65,318.35 143.09,365.23 145.68,46.19 332.71,-307.69 530.94,-443.76 149.91,-102.94 263.84,-80.41 263.84,-80.41 l 530.09,7.41 c 0,0 277.29,17.11 145.8,235.12 -10.76,17.81 -76.6,161.28 -394.14,456.04 -332.42,308.51 -287.86,258.58 112.53,792.24 243.83,324.99 341.29,523.38 310.83,608.34 -29.01,80.95 -208.37,59.57 -208.37,59.57 l -596.84,-3.69 c 0,0 -44.28,6.04 -77.06,-13.59 -32.09,-19.19 -52.68,-64.04 -52.68,-64.04 0,0 -94.5,-251.46 -220.44,-465.34 -265.76,-451.27 -372.04,-475.17 -415.49,-447.1 -101.07,65.32 -75.82,262.34 -75.82,402.34 0,437.35 66.34,619.71 -129.17,666.9 -64.87,15.65 -112.66,26.01 -278.59,27.71 -212.97,2.15 -393.17,-0.65 -495.23,-50.65 -67.9,-33.25 -120.29,-107.34 -88.36,-111.61 39.44,-5.25 128.76,-24.1 176.12,-88.54 61.18,-83.23 59.04,-270.09 59.04,-270.09 0,0 35.15,-514.82 -82.08,-578.76 -80.44,-43.87 -190.81,45.68 -427.75,455.1 -121.38,209.73 -213.07,441.55 -213.07,441.55 0,0 -17.65,43.32 -49.18,66.51 -38.25,28.11 -91.68,36.99 -91.68,36.99 l -567.16,-3.7 c 0,0 -85.13,-2.38 -116.408,-39.4 C 894.398,3818.74 920,3750.66 920,3750.66 c 0,0 444,-1038.8 946.8,-1562.33 461.07,-480.01 984.54,-448.51 984.54,-448.51" /></g></g></svg>