<?xml version="1.0" encoding="UTF-8" standalone="no"?>
<svg
   xmlns:dc="http://purl.org/dc/elements/1.1/"
   xmlns:cc="http://creativecommons.org/ns#"
   xmlns:rdf="http://www.w3.org/1999/02/22-rdf-syntax-ns#"
   xmlns:svg="http://www.w3.org/2000/svg"
   xmlns="http://www.w3.org/2000/svg"
   viewBox="0 0 590.54669 157.50667"
   height="157.50667"
   width="590.54669"
   xml:space="preserve"
   id="svg2"
   version="1.1"><metadata
     id="metadata8"><rdf:RDF><cc:Work
         rdf:about=""><dc:format>image/svg+xml</dc:format><dc:type
           rdf:resource="http://purl.org/dc/dcmitype/StillImage" /></cc:Work></rdf:RDF></metadata><defs
     id="defs6" /><g
     transform="matrix(1.3333333,0,0,-1.3333333,0,157.50667)"
     id="g10"><g
       transform="scale(0.1)"
       id="g12"><path
         id="path14"
         style="fill:#ec1739;fill-opacity:1;fill-rule:nonzero;stroke:none"
         d="M 1168.96,1168.33 H 0 V 0 h 1168.96 v 1168.33" /><path
         id="path16"
         style="fill:#ffffff;fill-opacity:1;fill-rule:nonzero;stroke:none"
         d="m 646.426,1051.63 c -33.067,-0.22 -66.094,-23.06 -66.094,-67.81 V 515.227 c 0,-68.047 -91.562,-62.454 -91.562,0 V 983.82 c 0,89.52 -132.5,89.52 -132.5,0 V 511.477 c 0,-108.028 80.703,-179.844 177.031,-179.844 98.945,0 179.375,71.816 179.375,179.844 V 983.82 c 0,45.64 -33.184,68.03 -66.25,67.81 z m 333.75,0.32 c -26.863,0 -47.207,-17.82 -57.344,-39.22 L 775.645,770.539 c -10.207,-22.402 -17.657,-47.57 -17.657,-64.219 0,-14.894 2.039,-28.039 7.5,-40.156 L 924.707,286.008 H 306.426 c -22.254,0 -40.625,22.332 -40.625,42.969 V 983.82 c -4.68,89.52 -133.418,89.47 -136.25,-2.812 l 2.812,-695 c 0,-75.567 58.45,-136.098 133.438,-136.098 H 1108.77 L 903.301,675.383 c -5.672,19.558 -8.196,37.305 5.625,60.625 l 135.934,220.937 c 1.92,4.598 4.69,24.082 4.69,29.688 -2.69,40.117 -34.15,67.077 -69.374,65.317" /><path
         id="path18"
         style="fill:#100f0d;fill-opacity:1;fill-rule:nonzero;stroke:none"
         d="M 1397.98,1031.04 V 721.926 c 0,-77.266 -7.86,-120.215 -70.81,-120.215 -11.77,0 -19.63,0 -31.4,4.246 V 472.922 c 23.54,-8.652 39.27,-8.652 58.98,-8.652 176.91,0 184.78,133.113 184.78,210.449 v 223.203 h 102.21 v -425 h 141.48 v 558.118 h -385.24" /><path
         id="path20"
         style="fill:#100f0d;fill-opacity:1;fill-rule:nonzero;stroke:none"
         d="m 1830.43,1031.04 192.65,-403.606 -70.74,-154.512 h 153.31 l 228.03,558.118 h -153.32 l -82.58,-236.106 -98.31,236.106 h -169.04" /><path
         id="path22"
         style="fill:#100f0d;fill-opacity:1;fill-rule:nonzero;stroke:none"
         d="m 2376.91,472.922 h 141.56 V 713.34 l 145.45,-240.418 h 180.81 l -200.45,287.625 196.55,270.493 H 2671.78 L 2518.47,794.934 V 1031.04 H 2376.91 V 472.922" /><path
         id="path24"
         style="fill:#100f0d;fill-opacity:1;fill-rule:nonzero;stroke:none"
         d="m 3076.73,588.809 c -62.95,0 -125.82,55.851 -125.82,163.164 0,107.316 62.87,158.847 125.82,158.847 66.83,0 129.71,-51.531 129.71,-158.847 0,-107.313 -62.88,-163.164 -129.71,-163.164 m 0,-133.114 c 188.68,0 275.15,146.016 275.15,296.278 0,145.949 -86.47,291.967 -275.15,291.967 -184.8,0 -271.27,-146.018 -271.27,-291.967 0,-150.262 86.47,-296.278 271.27,-296.278" /><path
         id="path26"
         style="fill:#100f0d;fill-opacity:1;fill-rule:nonzero;stroke:none"
         d="m 3662.48,1061.09 c 58.98,0 117.95,21.47 145.52,85.9 l -82.57,34.31 c -11.85,-42.95 -47.21,-47.21 -62.95,-47.21 -11.77,0 -51.1,4.26 -58.97,47.21 l -82.5,-34.31 c 23.53,-64.43 86.47,-85.9 141.47,-85.9 M 3422.7,1031.04 V 472.922 h 137.57 l 196.56,334.832 V 472.922 h 137.64 V 1031.04 H 3756.83 L 3560.27,696.125 V 1031.04 H 3422.7" /><path
         id="path28"
         style="fill:#100f0d;fill-opacity:1;fill-rule:nonzero;stroke:none"
         d="M 4043.9,1031.04 V 721.926 c 0,-77.266 -7.94,-120.215 -70.81,-120.215 -11.77,0 -19.64,0 -31.48,4.246 V 472.922 c 23.6,-8.652 39.34,-8.652 58.98,-8.652 176.91,0 184.78,133.113 184.78,210.449 v 223.203 h 102.21 v -425 h 141.55 V 1031.04 H 4043.9" /><path
         id="path30"
         style="fill:#100f0d;fill-opacity:1;fill-rule:nonzero;stroke:none"
         d="m 1296.9,159.699 h 19.93 v 103.555 h 116.3 V 159.699 h 19.93 v 202.996 h -19.93 v -83.144 h -116.3 v 83.144 H 1296.9 V 159.699" /><path
         id="path32"
         style="fill:#100f0d;fill-opacity:1;fill-rule:nonzero;stroke:none"
         d="m 1503.73,159.699 h 109.09 V 176 h -89.17 v 89.234 h 85.63 v 16.301 h -85.63 v 64.785 h 89.17 v 16.375 H 1503.73 V 159.699" /><path
         id="path34"
         style="fill:#100f0d;fill-opacity:1;fill-rule:nonzero;stroke:none"
         d="m 1744.09,203.996 c -47.91,1.699 -80.3,14.383 -80.3,63.152 0,31.262 14.38,62.024 80.3,62.872 V 203.996 m 19.71,126.024 c 65.85,-0.848 80.3,-31.61 80.3,-62.872 0,-48.769 -32.39,-61.453 -80.3,-63.152 z m -19.71,-170.321 h 19.71 v 27.918 h 8.29 c 65.63,0 92.78,38.848 92.78,79.531 0,47.637 -35.22,79.172 -92.78,79.172 h -8.29 v 24.383 h -19.71 V 346.32 h -8.01 c -57.91,0 -93.06,-31.535 -93.06,-79.172 0,-40.683 27.15,-79.531 93.06,-79.531 h 8.01 v -27.918" /><path
         id="path36"
         style="fill:#100f0d;fill-opacity:1;fill-rule:nonzero;stroke:none"
         d="m 1936.82,159.699 h 19.14 V 346.32 h 54.01 v 16.375 H 1882.88 V 346.32 h 53.94 V 159.699" /><path
         id="path38"
         style="fill:#100f0d;fill-opacity:1;fill-rule:nonzero;stroke:none"
         d="m 2127.06,265.234 h -28.78 c -16.3,0 -48.69,1.914 -48.69,40.684 0,37.637 34.31,40.402 50.61,40.402 h 26.86 V 265.234 M 2033.5,159.699 h 22.4 l 54.01,89.16 h 17.15 v -89.16 h 19.99 v 202.996 h -46.85 c -61.46,0 -70.32,-40.75 -70.32,-58.757 0,-34.309 26.87,-55.079 58.48,-53.938 l -54.86,-90.301" /><path
         id="path40"
         style="fill:#100f0d;fill-opacity:1;fill-rule:nonzero;stroke:none"
         d="m 2198.02,159.699 h 19.91 v 103.555 h 116.32 V 159.699 h 19.91 v 202.996 h -19.91 v -83.144 h -116.32 v 83.144 h -19.91 V 159.699" /><path
         id="path42"
         style="fill:#100f0d;fill-opacity:1;fill-rule:nonzero;stroke:none"
         d="m 2438.37,241.633 35.16,83.074 36,-83.074 h -71.16 m -55.15,-81.934 h 19.99 l 27.93,65.918 h 85.55 l 28,-65.918 h 19.92 l -91.08,208.242 -90.31,-208.242" /><path
         id="path44"
         style="fill:#100f0d;fill-opacity:1;fill-rule:nonzero;stroke:none"
         d="m 2681.21,265.234 h -28.78 c -16.38,0 -48.77,1.914 -48.77,40.684 0,37.637 34.38,40.402 50.69,40.402 h 26.86 v -81.086 m -93.56,-105.535 h 22.4 l 54,89.16 h 17.16 v -89.16 h 19.91 v 202.996 h -46.77 c -61.46,0 -70.32,-40.75 -70.32,-58.757 0,-34.309 26.87,-55.079 58.41,-53.938 l -54.79,-90.301" /><path
         id="path46"
         style="fill:#100f0d;fill-opacity:1;fill-rule:nonzero;stroke:none"
         d="m 2819.42,159.699 h 19.93 v 98.309 l 91.08,-98.309 h 26.01 l -98.31,104.688 96.67,98.308 h -24.37 L 2839.35,268 v 94.695 h -19.93 V 159.699" /><path
         id="path48"
         style="fill:#100f0d;fill-opacity:1;fill-rule:nonzero;stroke:none"
         d="m 3084.94,170.469 c -49.54,0 -88.31,37.14 -88.31,90.304 0,53.153 38.77,91.082 88.31,91.082 49.62,0 89.17,-37.929 89.17,-91.082 0,-53.164 -39.55,-90.304 -89.17,-90.304 m 0,-17.16 c 60.39,0 109.94,43.461 109.94,107.464 0,63.934 -49.55,107.168 -109.94,107.168 -59.53,0 -109.08,-43.234 -109.08,-107.168 0,-64.003 49.55,-107.464 109.08,-107.464" /><path
         id="path50"
         style="fill:#100f0d;fill-opacity:1;fill-rule:nonzero;stroke:none"
         d="m 3222.31,159.699 h 19.15 l 18.77,149.832 74.78,-158.98 73.94,158.98 19.99,-149.832 h 17.93 l -27.93,211.004 -83.93,-181.375 -84.77,181.375 -27.93,-211.004" /><path
         id="path52"
         style="fill:#100f0d;fill-opacity:1;fill-rule:nonzero;stroke:none"
         d="M 3484.29,362.695 V 159.699 h 19.92 V 346.32 h 116.31 V 159.699 h 19.92 v 202.996 h -156.15" /><path
         id="path54"
         style="fill:#100f0d;fill-opacity:1;fill-rule:nonzero;stroke:none"
         d="m 3724.65,241.633 35.15,83.074 36.01,-83.074 h -71.16 m -55.08,-81.934 h 19.92 l 27.92,65.918 h 85.63 l 27.93,-65.918 h 19.92 l -91.09,208.242 -90.23,-208.242" /><path
         id="path56"
         style="fill:#100f0d;fill-opacity:1;fill-rule:nonzero;stroke:none"
         d="m 3879.17,159.699 h 19.91 V 263.254 H 4015.4 V 159.699 h 19.99 v 202.996 h -19.99 v -83.144 h -116.32 v 83.144 h -19.91 V 159.699" /><path
         id="path58"
         style="fill:#100f0d;fill-opacity:1;fill-rule:nonzero;stroke:none"
         d="M 4086,362.695 V 150.551 l 139.07,169.762 V 159.699 h 19.63 V 370.703 L 4105.99,202.082 V 362.695 H 4086" /><path
         id="path60"
         style="fill:#100f0d;fill-opacity:1;fill-rule:nonzero;stroke:none"
         d="m 4383.13,265.234 h -28.77 c -16.31,0 -48.71,1.914 -48.71,40.684 0,37.637 34.31,40.402 50.69,40.402 h 26.79 v -81.086 m -93.56,-105.535 h 22.39 l 54.02,89.16 h 17.15 v -89.16 h 19.99 v 202.996 h -46.78 c -61.53,0 -70.39,-40.75 -70.39,-58.757 0,-34.309 26.86,-55.079 58.47,-53.938 l -54.85,-90.301" /></g></g></svg>